<mxfile host="app.diagrams.net" modified="2021-05-24T03:51:27.072Z" agent="5.0 (Macintosh; Intel Mac OS X 10_15_7) AppleWebKit/537.36 (KHTML, like Gecko) Chrome/90.0.4430.212 Safari/537.36" etag="iAmpAJ2kofiPiraqKHvZ" version="14.6.13" type="github">
  <diagram name="Page-1" id="aaaa8250-4180-3840-79b5-4cada1eebb92">
    <mxGraphModel dx="1126" dy="-1486" grid="1" gridSize="10" guides="1" tooltips="1" connect="1" arrows="1" fold="1" page="1" pageScale="1" pageWidth="850" pageHeight="1100" background="none" math="0" shadow="0">
      <root>
        <mxCell id="0" />
        <mxCell id="1" parent="0" />
        <mxCell id="LoBBVImWNWukxEiY-rpg-7" value="" style="verticalLabelPosition=bottom;html=1;verticalAlign=top;strokeWidth=1;align=center;outlineConnect=0;dashed=0;outlineConnect=0;shape=mxgraph.aws3d.vpcGateway;fillColor=#ECECEC;strokeColor=#5E5E5E;aspect=fixed;" vertex="1" parent="1">
          <mxGeometry x="420" y="2965" width="163.99" height="144.46" as="geometry" />
        </mxCell>
        <mxCell id="LoBBVImWNWukxEiY-rpg-9" style="edgeStyle=orthogonalEdgeStyle;rounded=0;orthogonalLoop=1;jettySize=auto;html=1;" edge="1" parent="1" source="LoBBVImWNWukxEiY-rpg-8" target="LoBBVImWNWukxEiY-rpg-7">
          <mxGeometry relative="1" as="geometry" />
        </mxCell>
        <mxCell id="LoBBVImWNWukxEiY-rpg-8" value="" style="verticalLabelPosition=bottom;html=1;verticalAlign=top;strokeWidth=1;align=center;outlineConnect=0;dashed=0;outlineConnect=0;shape=mxgraph.aws3d.end_user;strokeColor=none;fillColor=#777777;aspect=fixed;" vertex="1" parent="1">
          <mxGeometry x="200" y="2938.78" width="96.04" height="196.9" as="geometry" />
        </mxCell>
        <mxCell id="LoBBVImWNWukxEiY-rpg-10" value="" style="verticalLabelPosition=bottom;html=1;verticalAlign=top;strokeWidth=1;align=center;outlineConnect=0;dashed=0;outlineConnect=0;shape=mxgraph.aws3d.dataServer;strokeColor=#5E5E5E;aspect=fixed;" vertex="1" parent="1">
          <mxGeometry x="1130.6299999999999" y="2990" width="98" height="84.45" as="geometry" />
        </mxCell>
        <mxCell id="LoBBVImWNWukxEiY-rpg-11" value="" style="verticalLabelPosition=bottom;html=1;verticalAlign=top;strokeWidth=1;align=center;outlineConnect=0;dashed=0;outlineConnect=0;shape=mxgraph.aws3d.dataServer;strokeColor=#5E5E5E;aspect=fixed;" vertex="1" parent="1">
          <mxGeometry x="1127.41" y="2830" width="92.83" height="80" as="geometry" />
        </mxCell>
        <mxCell id="LoBBVImWNWukxEiY-rpg-12" value="" style="verticalLabelPosition=bottom;html=1;verticalAlign=top;strokeWidth=1;align=center;outlineConnect=0;dashed=0;outlineConnect=0;shape=mxgraph.aws3d.dataServer;strokeColor=#5E5E5E;aspect=fixed;" vertex="1" parent="1">
          <mxGeometry x="1130.63" y="3170" width="104.44" height="90" as="geometry" />
        </mxCell>
        <mxCell id="LoBBVImWNWukxEiY-rpg-16" value="" style="verticalLabelPosition=bottom;html=1;verticalAlign=top;strokeWidth=1;align=center;outlineConnect=0;dashed=0;outlineConnect=0;shape=mxgraph.aws3d.customerGateway;fillColor=#ECECEC;strokeColor=#5E5E5E;aspect=fixed;" vertex="1" parent="1">
          <mxGeometry x="760" y="2975.41" width="140.36" height="123.64" as="geometry" />
        </mxCell>
        <mxCell id="LoBBVImWNWukxEiY-rpg-17" value="" style="edgeStyle=orthogonalEdgeStyle;rounded=0;orthogonalLoop=1;jettySize=auto;html=1;endArrow=none;" edge="1" parent="1" source="LoBBVImWNWukxEiY-rpg-7" target="LoBBVImWNWukxEiY-rpg-16">
          <mxGeometry relative="1" as="geometry">
            <mxPoint x="831.1300000000001" y="2963.45" as="sourcePoint" />
            <mxPoint x="1713" y="2963.45" as="targetPoint" />
          </mxGeometry>
        </mxCell>
        <mxCell id="LoBBVImWNWukxEiY-rpg-20" value="" style="verticalLabelPosition=bottom;html=1;verticalAlign=top;strokeWidth=1;align=center;outlineConnect=0;dashed=0;outlineConnect=0;shape=mxgraph.aws3d.dataServer;strokeColor=#5E5E5E;aspect=fixed;" vertex="1" parent="1">
          <mxGeometry x="1130.63" y="2830" width="92.83" height="80" as="geometry" />
        </mxCell>
      </root>
    </mxGraphModel>
  </diagram>
</mxfile>
